# xmcd
#
# Track frame offsets: 
#        150
#        19158
#        38992
#        59404
#        73092
#        89052
#        104748
#        126307
#        144175
#
# Disc length: 2129 seconds
#
# Revision: 0
# Processed by: cddbd v1.5.2PL0 Copyright (c) Steve Scherf et al.
# Submitted via: ExactAudioCopy v1.0b3
#
DISCID=88084f09
DTITLE=L.J. Reynolds - Tell Me You Will
DYEAR=1987
DGENRE=R&B
TTITLE0=Who's Loving You
TTITLE1=I Will Always Love You
TTITLE2=This Ring Is For You
TTITLE3=Magic Love
TTITLE4=Tell Me You Will
TTITLE5=He Can't Love You
TTITLE6=Olivia
TTITLE7=Tomorrow
TTITLE8=Got To Give My Love
EXTD=
EXTT0=
EXTT1=
EXTT2=
EXTT3=
EXTT4=
EXTT5=
EXTT6=
EXTT7=
EXTT8=
PLAYORDER=
